<svg width="58" height="65" viewBox="0 0 58 65" fill="none" xmlns="http://www.w3.org/2000/svg">
<path d="M12.8889 65H45.1111C45.8865 65.0001 46.6359 64.7182 47.2219 64.206C47.8078 63.6938 48.191 62.9856 48.3011 62.2115L54.3492 19.5H58V13H53.5469L47.9918 1.79725C47.725 1.25701 47.314 0.802582 46.8051 0.485074C46.2962 0.167565 45.7095 -0.000424452 45.1111 8.05387e-07H12.8889C11.6677 8.05387e-07 10.5528 0.695501 10.005 1.79725L4.45311 13H0V19.5H3.65078L9.69889 62.2115C9.809 62.9856 10.1922 63.6938 10.7781 64.206C11.3641 64.7182 12.1135 65.0001 12.8889 65ZM46.458 29.25H11.542L10.1597 19.5H47.8371L46.458 29.25ZM15.6826 58.5L14.3002 48.75H43.6966L42.3142 58.5H15.6826ZM14.8802 6.5H43.1198L46.342 13H11.658L14.8802 6.5Z" fill="#AC8F64"/>
</svg>
