<svg width="51" height="57" viewBox="0 0 51 57" fill="none" xmlns="http://www.w3.org/2000/svg">
<path d="M11.3333 57H39.6667C40.3485 57.0001 41.0074 56.7529 41.5227 56.3037C42.0379 55.8545 42.3748 55.2336 42.4717 54.5547L47.7898 17.1H51V11.4H47.0843L42.1997 1.57605C41.965 1.1023 41.6037 0.703802 41.1562 0.425372C40.7087 0.146942 40.1928 -0.000372212 39.6667 7.06263e-07H11.3333C10.2595 7.06263e-07 9.27917 0.609901 8.7975 1.57605L3.91567 11.4H0V17.1H3.21017L8.52833 54.5547C8.62515 55.2336 8.96208 55.8545 9.47732 56.3037C9.99255 56.7529 10.6515 57.0001 11.3333 57ZM40.851 25.65H10.149L8.9335 17.1H42.0637L40.851 25.65ZM13.7898 51.3L12.5743 42.75H38.4228L37.2073 51.3H13.7898ZM13.0843 5.7H37.9157L40.749 11.4H10.251L13.0843 5.7Z" fill="#AC8F64"/>
</svg>
