<svg width="37" height="41" viewBox="0 0 37 41" fill="none" xmlns="http://www.w3.org/2000/svg">
<path d="M8.22222 41H28.7778C29.2724 41.0001 29.7505 40.8222 30.1243 40.4992C30.4981 40.1761 30.7425 39.7294 30.8128 39.2411L34.6711 12.3H37V8.2H34.1592L30.6154 1.13365C30.4452 0.792885 30.1831 0.506244 29.8584 0.305969C29.5338 0.105695 29.1595 -0.000267731 28.7778 5.08013e-07H8.22222C7.44317 5.08013e-07 6.73194 0.4387 6.3825 1.13365L2.84078 8.2H0V12.3H2.32894L6.18722 39.2411C6.25746 39.7294 6.5019 40.1761 6.8757 40.4992C7.2495 40.8222 7.72758 41.0001 8.22222 41ZM29.637 18.45H7.363L6.48117 12.3H30.5168L29.637 18.45ZM10.0044 36.9L9.12256 30.75H27.8754L26.9936 36.9H10.0044ZM9.49256 4.1H27.5074L29.563 8.2H7.437L9.49256 4.1Z" fill="black"/>
</svg>
