<svg width="44" height="49" viewBox="0 0 44 49" fill="none" xmlns="http://www.w3.org/2000/svg">
<path d="M9.77778 49H34.2222C34.8104 49.0001 35.379 48.7876 35.8235 48.4014C36.268 48.0153 36.5587 47.4815 36.6422 46.8979L41.2304 14.7H44V9.8H40.6218L36.4076 1.35485C36.2051 0.947594 35.8934 0.605023 35.5073 0.365671C35.1212 0.126318 34.6762 -0.000319971 34.2222 6.07138e-07H9.77778C8.85133 6.07138e-07 8.00556 0.524301 7.59 1.35485L3.37822 9.8H0V14.7H2.76956L7.35778 46.8979C7.44131 47.4815 7.73199 48.0153 8.17651 48.4014C8.62103 48.7876 9.18955 49.0001 9.77778 49ZM35.244 22.05H8.756L7.70733 14.7H36.2902L35.244 22.05ZM11.8971 44.1L10.8484 36.75H33.1491L32.1004 44.1H11.8971ZM11.2884 4.9H32.7116L35.156 9.8H8.844L11.2884 4.9Z" fill="#AC8F64"/>
</svg>
